<svg id="Layer_1" data-name="Layer 1" xmlns="http://www.w3.org/2000/svg" viewBox="0 0 814.53 1217.31">
  <defs>
    <style>
      .cls-1 {
        fill: none;
        stroke: #000;
        stroke-miterlimit: 10;
      }
    </style>
  </defs>
  <title>labitint</title>
  <g>
    <polyline class="cls-1" points="323.68 81.69 408.06 81.69 408.06 0.5 0.5 0.5 0.5 1216.81 331.64 1216.81"/>
    <polyline class="cls-1" points="490.85 0.5 814.03 0.5 814.03 1216.81 408.06 1216.81 408.06 1054.42 487.66 1054.42 487.66 970.04 570.45 970.04 570.45 888.85 650.05 888.85 650.05 568.85 732.83 568.85 732.83 403.28 651.64 403.28 651.64 484.48"/>
    <polyline class="cls-1" points="166.07 1049.65 166.07 971.64 83.29 971.64 83.29 487.66 166.07 487.66 166.07 325.27 490.85 325.27 490.85 244.08 570.45 244.08 570.45 81.69"/>
    <polyline class="cls-1" points="0.5 404.88 83.29 404.88 83.29 161.29"/>
    <line class="cls-1" x1="166.07" y1="0.5" x2="166.07" y2="161.29"/>
    <polyline class="cls-1" points="650.05 0.5 650.05 81.69 732.83 81.69 732.83 161.29"/>
    <polyline class="cls-1" points="570.45 161.29 650.05 161.29 650.05 245.67 732.83 245.67"/>
    <polyline class="cls-1" points="83.29 245.67 245.67 245.67 245.67 80.9"/>
    <line class="cls-1" x1="83.29" y1="80.9" x2="166.07" y2="80.9"/>
    <line class="cls-1" x1="83.29" y1="565.67" x2="326.87" y2="565.67"/>
    <polyline class="cls-1" points="408.06 729.65 326.87 729.65 326.87 404.88 490.85 404.88 490.85 487.66 570.45 487.66"/>
    <polyline class="cls-1" points="570.45 729.65 570.45 323.68 814.03 323.68"/>
    <polyline class="cls-1" points="245.67 163.28 486.07 163.28 486.07 81.69"/>
    <line class="cls-1" x1="326.87" y1="245.67" x2="326.87" y2="325.27"/>
    <line class="cls-1" x1="245.67" y1="325.27" x2="245.67" y2="489.25"/>
    <line class="cls-1" x1="408.06" y1="163.28" x2="408.06" y2="245.67"/>
    <line class="cls-1" x1="83.29" y1="729.65" x2="174.03" y2="729.65"/>
    <polyline class="cls-1" points="161.29 646.86 245.67 646.86 245.67 810.84"/>
    <polyline class="cls-1" points="245.67 976.41 245.67 890.44 161.29 890.44 161.29 810.84 737.61 810.84"/>
    <polyline class="cls-1" points="814.03 729.65 737.61 729.65 737.61 646.86"/>
    <polyline class="cls-1" points="408.06 567.26 494.03 567.26 494.03 810.84"/>
    <line class="cls-1" x1="648.46" y1="1134.02" x2="814.03" y2="1134.02"/>
    <polyline class="cls-1" points="161.29 1134.02 326.87 1134.02 326.87 893.63"/>
    <polyline class="cls-1" points="486.07 1134.02 570.45 1134.02 570.45 1049.65 731.24 1049.65 731.24 893.63 814.03 893.63"/>
    <polyline class="cls-1" points="408.06 810.84 408.06 893.63 494.03 893.63"/>
    <line class="cls-1" x1="83.29" y1="1134.02" x2="83.29" y2="1216.81"/>
    <line class="cls-1" x1="83.29" y1="1049.65" x2="326.87" y2="1049.65"/>
    <line class="cls-1" x1="326.87" y1="968.45" x2="408.06" y2="968.45"/>
    <line class="cls-1" x1="650.05" y1="1049.65" x2="650.05" y2="968.45"/>
    <line class="cls-1" x1="408.06" y1="489.25" x2="408.06" y2="646.86"/>
  </g>
  <rect x="416.49" y="12.57" width="223.9" height="52.16"/>
  <rect x="175.18" y="12.57" width="223.9" height="52.16"/>
  <rect x="660.74" y="12.57" width="142.65" height="52.16"/>
  <rect x="493.14" y="81.69" width="68.57" height="154.7"/>
  <rect x="578.99" y="81.69" width="61.4" height="70.7"/>
  <rect x="660.74" y="117.04" width="61.4" height="119.35"/>
  <rect x="742.74" y="80.9" width="61.4" height="155.5"/>
  <rect x="416.49" y="81.69" width="61.4" height="70.7"/>
  <rect x="253.18" y="86.2" width="61.4" height="70.7"/>
  <polygon points="447.69 74.4 447.69 67.94 446.69 67.94 446.69 74.4 444.71 74.4 445.95 76.55 447.19 78.69 448.43 76.55 449.67 74.4 447.69 74.4"/>
  <polygon points="284.63 72.22 284.63 78.69 285.63 78.69 285.63 72.22 287.6 72.22 286.37 70.08 285.13 67.94 283.89 70.08 282.65 72.22 284.63 72.22"/>
  <polygon points="401.59 118.5 408.06 118.5 408.06 117.5 401.59 117.5 401.59 115.52 399.45 116.76 397.3 118 399.45 119.24 401.59 120.48 401.59 118.5"/>
  <polygon points="528.94 74.4 528.94 67.94 527.94 67.94 527.94 74.4 525.96 74.4 527.2 76.55 528.44 78.69 529.68 76.55 530.91 74.4 528.94 74.4"/>
  <polygon points="611.54 74.4 611.54 67.94 610.54 67.94 610.54 74.4 608.57 74.4 609.8 76.55 611.04 78.69 612.28 76.55 613.52 74.4 611.54 74.4"/>
</svg>
